<svg width="800" height="800" viewBox="0 0 24 24" xmlns="http://www.w3.org/2000/svg"><g style="stroke:none;stroke-width:1;fill:#4d4d4d;fill-opacity:1"><path d="M20 15c.552285 0 1 .447715 1 1s-.447715 1-1 1h-3v3c0 .552285-.447715 1-1 1s-1-.447715-1-1v-4c0-.552285.447715-1 1-1zM4 15h4c.5128358 0 .9355072.38604.9932723.883379L9 16v4c0 .552285-.4477152 1-1 1-.5128358 0-.9355072-.38604-.9932723-.883379L7 20v-3H4c-.5522847 0-1-.447715-1-1 0-.512836.3860402-.935507.8833789-.993272L4 15h4ZM16 3c.512836 0 .935507.3860402.993272.8833789L17 4v3h3c.552285 0 1 .4477152 1 1 0 .5128358-.38604.9355072-.883379.9932723L20 9h-4c-.512836 0-.935507-.3860402-.993272-.8833789L15 8V4c0-.5522847.447715-1 1-1ZM8 3c.5522848 0 1 .4477153 1 1v4c0 .5522848-.4477152 1-1 1H4c-.5522847 0-1-.4477152-1-1s.4477153-1 1-1h3V4c0-.5522847.4477152-1 1-1Z" style="fill:#4d4d4d;fill-opacity:1" fill="#212121"/></g></svg>