<?xml version="1.0" encoding="UTF-8" standalone="no"?>
<svg
   viewBox="0 0 32 32.000001"
   fill="none"
   version="1.1"
   id="svg2"
   sodipodi:docname="heart.svg"
   width="32"
   height="32"
   inkscape:version="1.3.2 (091e20e, 2023-11-25, custom)"
   xmlns:inkscape="http://www.inkscape.org/namespaces/inkscape"
   xmlns:sodipodi="http://sodipodi.sourceforge.net/DTD/sodipodi-0.dtd"
   xmlns="http://www.w3.org/2000/svg"
   xmlns:svg="http://www.w3.org/2000/svg">
  <defs
     id="defs2" />
  <sodipodi:namedview
     id="namedview2"
     pagecolor="#ffffff"
     bordercolor="#000000"
     borderopacity="0.25"
     inkscape:showpageshadow="2"
     inkscape:pageopacity="0.0"
     inkscape:pagecheckerboard="0"
     inkscape:deskcolor="#d1d1d1"
     inkscape:zoom="17.921875"
     inkscape:cx="29.935484"
     inkscape:cy="26.866609"
     inkscape:window-width="2560"
     inkscape:window-height="1361"
     inkscape:window-x="-9"
     inkscape:window-y="-9"
     inkscape:window-maximized="1"
     inkscape:current-layer="svg2" />
  <g
     id="g2"
     transform="translate(2.0426111,3.7743592)">
    <path
       d="m 3.9573889,0.87796094 c 4.665,-2.33200004 8.5000001,0.49999996 10.0000001,2.49999996 1.5,-2 5.335,-4.832 10,-2.49999996 6,2.99999996 4.5,10.50000006 0,15.00000006 -2.196,2.196 -6.063,6.063 -8.891,8.214 a 1.764,1.764 0 0 1 -2.186,-0.041 c -2.593,-2.093 -6.7580001,-6.008 -8.9230001,-8.173 -4.50000004,-4.5 -6,-12.0000001 0,-15.00000006"
       fill="#ff6723"
       id="path1" />
    <path
       d="m 13.957389,3.3779609 v 3.05 c 1.27,-2.685 4.425,-6.26999996 9.658,-5.71299996 -4.51,-2.03000004 -8.195,0.71199996 -9.658,2.66299996 M 9.9033889,0.41496094 c -1.686,-0.587 -3.721,-0.65 -5.946,0.463 -6,2.99999996 -4.50000004,10.50000006 0,15.00000006 2.165,2.165 6.3300001,6.08 8.9230001,8.173 a 1.764,1.764 0 0 0 2.186,0.04 q 0.381,-0.29 0.785,-0.618 c -2.854,-2.143 -6.8600001,-5.519 -9.0350001,-7.462 -4.957,-4.431 -6.61000004,-11.8150001 0,-14.7690001 a 9.7,9.7 0 0 1 3.087,-0.82699996"
       fill="#d9581e"
       id="path2" />
    <ellipse
       cx="22.298704"
       cy="-4.2462864"
       fill="#ff944c"
       rx="2.836"
       ry="4.7810001"
       transform="rotate(30)"
       id="ellipse2" />
  </g>
</svg>
