<svg width="1200" height="1200" xmlns="http://www.w3.org/2000/svg"><path d="M936.57851 1326.2595h704.72099c32.75 0 59.54-26.82 59.54-59.54v-2.88l-377.3-239.34c-21.62-13.73-47.58-13.73-69.19 0l-377.31099 239.34v2.88c0 32.72 26.791 59.54 59.54 59.54zm764.26099-113.58V860.37948c0-32.72-26.79-59.539-59.54-59.539H936.57851c-32.749 0-59.54 26.819-59.54 59.539v352.30002l354.16099-224.68002c35.74-22.65 79.75-22.65 115.49 0l354.15 224.68002" style="fill:#d4b37d;fill-opacity:1;fill-rule:evenodd;stroke:none;stroke-width:.09975;stroke-dasharray:none" transform="matrix(1.33333 0 0 -1.33333 -1118.5853 2018.0666)"/></svg>