<svg width="1200" height="1200" xmlns="http://www.w3.org/2000/svg"><path style="fill:#d4b37d;stroke:#4d4d4d;stroke-width:.0814583" d="M600.00003 31.82201A568.17746 568.17746 0 0 0 31.821999 600.00004 568.17746 568.17746 0 0 0 600.00003 1168.178 568.17746 568.17746 0 0 0 1168.178 600.00004 568.17746 568.17746 0 0 0 600.00003 31.82201ZM312.25475 385.46506h575.49056c26.74442 0 48.62184 21.90197 48.62184 48.62185v2.35179L628.25611 631.88907c-17.65536 11.21219-38.85537 11.21219-56.50259 0L263.6329 436.4387v-2.35179c0-26.71988 21.87832-48.62185 48.62185-48.62185zm-48.62185 92.75187 289.21544 183.47973c29.18604 18.49645 65.1257 18.49645 94.31175 0l289.20706-183.47973v287.69624c0 26.7199-21.87742 48.62185-48.62184 48.62185H312.25475c-26.74353 0-48.62185-21.90195-48.62185-48.62185z"/></svg>