<svg width="1800" height="1800" viewBox="0 0 1800 1800.0001" xmlns="http://www.w3.org/2000/svg"><path d="M1672.21 2518.75h-328.42c-23.32 0-42.29-18.97-42.29-42.29V1336.04c0-23.32 18.97-42.29 42.29-42.29h328.42c23.32 0 42.29 18.97 42.29 42.29v1140.42c0 23.32-18.97 42.29-42.29 42.29M2382.7 2518.75h-328.41c-23.32 0-42.29-18.97-42.29-42.29V1336.04c0-23.32 18.97-42.29 42.29-42.29h328.41c23.32 0 42.3 18.97 42.3 42.29v1140.42c0 23.32-18.98 42.29-42.3 42.29" style="fill:#f0e4d1;fill-opacity:1;fill-rule:nonzero;stroke:none;stroke-width:.1" transform="matrix(1.33333 0 0 -1.33333 -1584.3333 3441.6666)"/></svg>