<svg width="1200" height="1200" xmlns="http://www.w3.org/2000/svg"><path style="fill:#d4b37d;fill-opacity:1" d="M600.03125 43C292.35582 43 42.996094 292.39093 42.996094 599.99609 42.996094 907.6403 292.35582 1157 600.03125 1157c307.60129 0 556.97265-249.3597 556.97265-557.00391C1157.0039 292.39093 907.63254 43 600.03125 43zm183.16406 326.57227c20.55324.31407 38.18772 18.78786 34.71875 41.23632l-64.91015 420.58203c-5.1523 33.35937-43.28132 49.99994-71.24219 31.09766l-191.32031-129.3164c-15.02729-10.16019-16.8594-31.60157-3.75782-44.16016l181.55079-174.10156c4.72649-4.53125 4.45706-12.17969-.58204-16.3711-3.74999-3.10936-9.09764-3.3789-13.14843-.66015l-240.5 161.8125c-21.72268 14.61716-48.918 18.55858-73.89453 10.70312l-103.38282-32.50391c-19.12498-6.0117-20.38279-32.60157-1.90625-40.39062l533.90235-225.07031c4.83033-2.03613 9.7296-2.9299 14.47265-2.85742z"/></svg>