<svg width="1800" height="1800" viewBox="0 0 1800.0001 1800.0001" xmlns="http://www.w3.org/2000/svg"><path d="M1925.002 1438.5613v-259.99c0-14.4-7.8-27.8-20.4-34.8-6.2-3.4-12.8-5.2-19.6-5.2-7.2 0-14.4 2-20.8 5.8l-427.98 259.59V863.59133c0-159.2-132.8-288.59-296.19-288.59-163.19199 0-296.18599 129.39-296.18599 288.59 0 158.98997 132.994 288.37997 296.18599 288.37997 85.4 0 162.19-35.39 216.19-91.79v674.77c0 14.4 7.8 27.8 20.4 34.79 12.6 7.21 28 7.01 40.4-.59l488.78-296.39c11.8-7.2 19.2-20.2 19.2-34.2" style="fill:#f0e4d1;fill-opacity:1;fill-rule:nonzero;stroke:none;stroke-width:.1" transform="matrix(1.33333 0 0 -1.33333 -945.89864 2466.6702)"/></svg>